<mxfile host="app.diagrams.net" modified="2023-06-28T08:28:52.549Z" agent="Mozilla/5.0 (Macintosh; Intel Mac OS X 10_15_7) AppleWebKit/537.36 (KHTML, like Gecko) Chrome/114.0.0.0 Safari/537.36" etag="UtsB8-1btlbdk8YIvlD1" version="21.5.1" type="github">
  <diagram name="Page-1" id="IdHoY3b4S34XRxENX0nw">
    <mxGraphModel dx="1434" dy="802" grid="1" gridSize="10" guides="1" tooltips="1" connect="1" arrows="1" fold="1" page="1" pageScale="1" pageWidth="850" pageHeight="1100" math="0" shadow="0">
      <root>
        <mxCell id="0" />
        <mxCell id="1" parent="0" />
        <mxCell id="PLvDAdipm1odo7hSFxWH-2" value="" style="rounded=0;whiteSpace=wrap;html=1;fillColor=#dae8fc;strokeColor=#6c8ebf;" vertex="1" parent="1">
          <mxGeometry x="160" y="160" width="1040" height="440" as="geometry" />
        </mxCell>
        <mxCell id="PLvDAdipm1odo7hSFxWH-5" value="dev branch" style="rounded=1;whiteSpace=wrap;html=1;fillColor=#fff2cc;strokeColor=#d6b656;" vertex="1" parent="1">
          <mxGeometry x="340" y="350" width="120" height="60" as="geometry" />
        </mxCell>
        <mxCell id="PLvDAdipm1odo7hSFxWH-7" value="master branch" style="rounded=1;whiteSpace=wrap;html=1;fillColor=#f8cecc;strokeColor=#b85450;" vertex="1" parent="1">
          <mxGeometry x="1030" y="350" width="120" height="60" as="geometry" />
        </mxCell>
        <mxCell id="PLvDAdipm1odo7hSFxWH-9" value="" style="shape=image;verticalLabelPosition=bottom;labelBackgroundColor=default;verticalAlign=top;aspect=fixed;imageAspect=0;image=data:image/png,iVBORw0KGgoAAAANSUhEUgAAAMgAAADICAYAAACtWK6eAAAAAXNSR0IArs4c6QAAFBJJREFUeF7tnQuQJWV1x//n6zssLrCbKqB448zt1+wCS6mAAZaY8N4YMCEiJkEBAWVNlcQXVtTlIYolosRURTCABCWGh5AoWss7GEAiYCgW2J1+3VkhLkspKXaBFZh7v5PqmVld1p29t++ju29/p2un5t7b33ce/3N+2z19+0GQRRQQBeZUgEQbUUAUmFsBAUS6QxTYjgICiLSHKCCASA+IAt0pIFuQ7nSTWYYoIIAYUmhJszsFBJDudJNZhigggBhSaEmzOwUEkO50k1mGKCCAGFJoSbM7BQSQ7nSTWYYoIIAUVOixsbE9aGTkQAIWANiFgF0w8zpdNjLwMoCXOX09NfX05OTkCwWFarRbASSn8juOczwTLWGig4lxOAA7o+uECY8Q85PEvCqO47szzpfhXSgggHQhWqdTbM9bBsYyYPrH6XReh+NiACtBWJmE4coO58iwjAoIIBkFazfc9/2xptYfAuj9A4BiLvcxwDfVlPp2EAST7WKU9Z0rIIB0rtV2R475/hJL67MYdBaAhX0ym9XMBgJf31Lq+skgWJV1soz/fQUEkB67YnTx4j2tqeZnAXwUgNWjuX5NbwH4Zmukdtna1avX98uoiXYEkB6qXnfdswiUwtHvvy96iOpNU2MGX9aIouv7ZdA0OwJIFxVPd6dI688T6NQupuc+hcG3slJflN2u7NILIBk1q7vuKQT6RwD7ZJxa9PBfMvhjjSi6vehAhsm/AJKhWrbrXwDwVzJMKeFQ+kwSBZeXMLBShiSAdFgW2/GuAeGcDoeXexjj2iQOzy13kOWITgDpoA5117+LwMd3MHRohjDo7kYUnDA0ARcUqADSRnjb81aBcVBB9RmsW8JTSRguGayT4bYugGynfrbr/RrArsNd4rbRv5hE4W5tRxk6QACZo/C2623Y4uzaqrfHxiQKi/r2v9TaCiDbKI/tuncCZNj+Od+VRNGJpe7WAoITQLYSve55XyfGxwuoReEumXBlIww/UXggJQpAANmiGLbrfgGgFSWqTwGh8KVJFF1YgONSuhRAZstSd90/I9AdpaxSzkEx+KRGFP0oZ7eldCeAABgdHd2xNrLDTxg4rJRVyjkoAh5tTr3xrrVr176Ws+vSuRNA0mtfHe9LIKRn5cqyWQHGZUkcfs50QYwHxLb9P4Hi+01vhG3mr+noJAn+02RtjAekiqeR9Kuh5XQUwGhA6q5/HoGv6ldDVdEOg5Y3ouDqKubWSU7GApLel0rVRh7u4vY7nehapTGJbk4daep9uYwFxHb9rwL8qSp18uByoSuSKPj04OyX17KRgNj2ogOhWk+VtywljExbByXJmqdLGNlAQzITEDmsm72pDD3saxwgS5Ys2emV37z2FAFj2bvE3BkMTO78lh0PWrVq1asmqWAcII7jncOEa0wqcr9yJca5cRxe2y97w2DHOEBs17sXwDHDUJwSxnhfEoXHljCugYVkFCC27x8JzQ8NTE0TDCtamgRBenjciMUsQOTQbh+a2qxDviYBYtmuvwZgtw9dYrAJipIoWAQgvf9v5RdjAJm9I+Jtla9oDgky+C9NuUOjMYDYjncDCB/MoX+q74LxnSQOz6h+ogadrGi73nMA9jWhqDnk+L9JFO6Xg5/CXRixBan7/iGk+bHC1a5QAKzo0EYQPF6hlLaZihGA2K77MYC+UfVi5psfn59EUXqX+0ovZgDieDeBcFqlK5l3coybkzhMn8NY6cUMQFzvWQBG7DPn2K3PJVG4f47+CnFVeUDGx8d3nWrp9B67svRZgRFL7TYxMfFin82WylzlAXGc8cOZ9E9LpXpFgiFWR8TxxCMVScfMP9Jt1z0TIHmI5UC6mM9KouhfBmK6JEYrvwWpO95lRPj7kuhdqTCY8eVGHFb6fmKVB8Rx/e+np0ZUqjNLkgyBbouj4L0lCWcgYVQeENvzHgbjiIGoZ7pRwk+TMDyyyjJUHxDXexKAPGZsMF28KonCgwdjuhxWTQAklntfDazZkiQKnYFZL4FhEwBZD2CPEmhdxRBeSKJwzyomtjknEwB5GcDOVS5igbm9kkThLgX6H7hrEwDhgatosIMkCivdQ5VOLu1b2/VkCzI4gGULMjht87FsO97zIFR6PzkfJbfhhbE+icO9CvOfg2MTtiARgEofacmhT+ZyESdRWOmbYJgAyP8AeFuBTVRl108kUfj2KidoAiD/BeCoKhexwNweTKLwjwr0P3DXlQfEcd3rGPShgStpoAMCfzuOorOrnHrlAam7/vkE/ocqF7Go3Bj0d40oqPS1/pUHxPb9o6H5vqKaqNJ+FR2TBEGlnxBceUB839+7qfmXlW7UgpKrKdonCIJ1BbnPxW3lAZn9sjAFZO9cFDXHybokCveperpmAOJ5K8E4serFzDU/wp1JGC7L1WcBzswAxPGuAOGTBehbXZeMryVxWPmnBBsBiON55zDLY9f6SSsRzo3D6j+OzQhA6p63lBgP9rNBTLfFhKMaYVj5p3UZAYjnebu1GL8yvan7mb9F2D0Mw8rfkM8IQKaPZDnev4Pw5/1sEmNtMf4jicO/MCF/cwDxvDPAqPRNznJrWMKZSRjekJu/Ah0ZA0i9Xl9IVm0NgEpfv5BDLz3PreaiRqOxIQdfhbswBpCZLwzdqwA6r3DVhzoAvjqJouVDnUKG4I0CxHHGT2DSd2bQR4ZupQCxOjGOJ+4yRRijAJnZinhyAVX33V35C6S2lsY4QOqOdyERLum+R8ydyYyLGnH4BZMUMA6QMd9fojSntyOVJaMCWtHBk0GwKuO0oR5uHCBptequ/0MCnzTUlcs5eAbd0YiCk3N2W7g7IwGRP9az951pf5xvVshIQNLkHdf/Vwb/dfZWMW8Ggb4XR8HfmJc5YCwgtj1+BJR+2MSiZ85ZqyOTZMLI5zwaC8jsId9vAfhw5oYxa8I/J1H4EbNS/l22RgMye0TrZwB2NLUB2uT9mlb0TtOOXG2pidGATG9F5GrDuRkx5KrB7f0nYTwgvu+PNTU/CmA32Yq8SYFf1xQdFgTBpMm6GA/I9PcijncxES4yuRG2zp0ZlzTi8GLTNRFAZjvAdrybQDjN9IaYzp9xcxKH7xctDD7Mu43iW7MnMpr+RNz0ybXpHdtbAogA8qYecBznACb1BIARQ5tjili/LY7jZwzN//fSll2srSRxHP+9THyriQ1CTKfGcfB9E3OfK2cBZBvK2K6/AmCjTusG6MIkCi4VON6sgAAyR0fYrvc9AH9lSMP8WxKFcl7aNootgGyHAEMgETi20wMCSJtNhON45zBV87alxDg3jqt/+9Be9gIEkA7Us23/SCiu1m02NS1NkkDOZm5TfwGkA0DSIWNji96qaq3rABzT4ZSyDrtPN62zJyfX/KKsAZYpLgEkUzVOtWznyatBOCfTtLIMZlybxAefB9wqXwJ2WBMBpEOhthxWd7yLiPAZAG/pYnoRU37DjMvl3Krs0gsg2TWbnmHb4++ApS8A431dmshnGuEWtNTlSTLx83wcVsuLANJjPR3H+wATXwDQgT2a6vN0fpqYLo/j8Lt9NmyUOQGkD+UeHR39A7XDDhcQT+92qT6Y7MWEZsJX9BtvXL527dqXejEkc+Vkxb72wPSNIGZ2u97TV8OdGiP8YHZ3ysgbLHQqU5ZxsgXJolaHY8d837eY380a7wbh6A6ndTeMcT8p/LhF9OPJIAi6MyKz5lJAABlwb6Tfn1hW6xQmnAJgaZ/cPUSM21st63b5PqNPis5hRgAZrL5vsj42NrYH1WqHKqY9mXhPMO1BRHsyeE8Am3/SOevTHwKtZ+b1IH6BmNZr4vXcbD42OTn5Qo5hG+1KADG6/JJ8OwUEkHYKyXqjFRBAjC6/JN9OAQGknUKy3mgFBBCjyy/Jt1NAAGmnkKw3WgEBxOjyS/LtFBBA2ikk641WQAAxuvySfDsFBJB2Csl6oxUQQIwuvyTfTgEBpJ1Cst5oBQQQo8svybdTQABpp5CsN1oBAcTo8kvy7RQQQNop1MH6ty5atNfI1JQPWAsAXgiFBQAWMvNCQM18BixgYBcA82afqpv+nkfAPJ55yu7069QdA68DeJ2A1za/Tt8DeG3285cBbARoA6A3EqW/sQF682etjVMjI8Ev1qx5voPwZch2FBBAOmyPvffee/5OO+3kaSKfNXxF7DGTD4KXNn+HZvIethGMkIgDzRSSQqCYg1dffTVct27dpryDGUZ/AshWVfN9f+8mMM4tHqcUBmCcgHGA9x/GAs8dMz3LwAQBE8wckEUTNWAiCIJ11cqzt2yMBqRer+/PSh2myDqKwH+YwlDirUFvle589sZpaED/rbn1IGn9aKPReLbz6dUaaRQgdd8/hLR+B4gOIcbSWSCqVdEBZDMNDOEhMD/OSv28EQSPD8BNKU1WGpB6vb6QlTpOkXUswMelj0QvZRWGL6gGQPdobt1LWt/TaDTSgwSVXCoHSL2+eH+lWscx8bEAUih2rWTlypPUiwDuIaZ7tbbuaTRWV2p3rBKA2LbtQKllYFoGmoaiVp7+MSqSJhj3gHgltF6ZJEk87NkPLSBbQbFs2AtRyfgZK4cdlqECxPf9XaZaOJ3AJ4EgUAwTVYyVDLpjxMKNQRCkX3QOxTIUgNTr4x5ZrdMZdDoBY0OhrAS5TQUYmCTwjdyybmw0JsKyy1RqQBzHeRdDnQ7C6bOnZ5RdT4mvcwVeA+NGgr4xjuOfdD4t35GlBMT2vGXMtHx6V0qWyiuQ7noR8VVJGK4sW7KlAsRxnD9mpZaX/rFmZatiVeIh3EJaXxXH8QNlSakUgLiu+04NWg7gjLIII3EUqsANCnxVFEU/KzQKFPyEqfHx8V2nWrwC4POLFkL8l1EB+saIRZdOTEykX0YWshS2BbE97zQwVgA4oJDMxemwKPAMCJcmYXhzEQHnDoht2/uBrBUgnFtEwuJzSBVgXANuXZokyXN5ZpArII7jn87El8hJg3mWuFK+GsR0URwHN+aVVW6A2I73JRA+m1di4qfCCjAuS+Lwc3lkOHBA0odYqlrr68D0QyxlEQX6pcDtuml9YtAPMR0oII4zfgKTvhLAon6pInZEgS0UWEOsPh7HE3cNSpWBAeI4/qlMfMugAhe7osBmBYjpfXEc3DoIRQYCiMAxiFKJze0pMChI+g6IwCGNXJQCg4Ckr4AIHEW1hvgd1O5W3wAZ8/0lSvPdAPaQcokCBSrwglZ0/GQQrOpHDH0DpO76dxH4+H4EJTZEgV4UYNDdjSg4oRcbv90i9cOI7fpfBfhT/bAlNkSB/ihAVyRR8OlebfW8BXEc7wNM+E6vgch8UaDfChDjg3EcfrcXuz0Bsnjx4p1fn2o9AvCBvQQhc0WBwShAT88bsQ5fvXr1K93a7wkQ2/U/D/Cl3TqXeaLA4BWgFUkUfLFbP10DUq8vcslKtx5y58JuxZd5uSjwIreswxuNNVE33roHxPP+iRgf7capzBEF8lSACd9shOHfduOzK0Acx5nHpNILV3bvxqnMEQVyVuBXxHq/OI7Tp3RlWroExD+ZiX+QyZMMFgUKVICY3hPHwQ+zhtAVIHXZvcqqs4wvWIFud7O6AsR2vfSu3XbBOYt7USCLAkkShU6WCenYzIA4jrOASVX2gSlZBZTxw6MAsV4Yx/HGLBF3A8hiJvVMFicyVhQogwLE+oA4jldniaULQKYvo70zixMZKwqUQQFidWLWy3O7AMQ/m4mvLUPCEoMokEUBYjonjoPrMs3JMjgdW3e8i4lwUdZ5Ml4UKFoBZlzSiMOLs8SReQtiu+6HAfpWFicyVhQogwIMWt6IgquzxJIZkLrrnkKg27I4kbGiQBkU6Oaa9cyAOI7zdiaVnqS4QxmSlhhEgY4VUHRMEgT3dzy+m+9BUuNyBWEWiWVsGRRIn2LViIKTs8aSeQuSOnAcZ18mlR7qlUcXZFVcxheiAINPakTRj7I67wqQWUjSLwzTOycKJFlVl/G5KtDN0avNAXYNyGZINFlXyt1Mcq23OMugQC9wpG56AmRznLbrfgTAJwFyM8QuQ0WBQSrwGCm6Ig6Cnu4P3RdAZrcmuzPRmQCdCuDQQWYutkWB7SgQM9O1+++719ceeOCBZq9K9Q2QLQOpe96fEiMF5TgA+/QapMwXBdookF5+sRKElf1+1vpAANkyGdsePwKKlxL4KAaOArBQyi0K9KIAAf+nQQ+D8TBZeCgJgod7sbe9uQMHZGvno+Pjo0rrxcR8AECL06NgBCxmYKdBJSl2h1aBVwAKwRyBOCRWIdB6Jo7jJ/LKKHdA5kpMwMmr5KXzoxkICRwCKQA6IubQsqwwCIJ1RUdbGkDagGMTsADM6e7ZgpkfNfub099bfI4F02OBBQzUihbYIP/pH8TplaYbAHoJxBugsQGElwDeQETp+5c0aANIT49TzJNxHCdl1qj0gPQonjU6Ojoyf/782qZNm2q1Wm1kamSkZr3++ohlWbWWZdVUsznSUqpGTRpRqlXTStWUVjW2WLHWSrGlWGmLmZViVkD6ntXM+/Tf714jfQ0oZkrHWkwz7xWTYgUFTscqNT1r2pZSlP5WM3NmPgOISBOxhoZmIg1onX6mdfq51kjX6+kPNc2ugybNv11H6dDpOekPWumg2ffTL2ZttNL1rRk7SmlqkdZKN5XWTa2tJtd4ykpf12pTVqvVbKU/8+ZNjUxNNZvN5tT8+fObmzZtaq5du3YKQKvHWpVyetUBKaXoEtTwKCCADE+tJNICFBBAChBdXA6PAgLI8NRKIi1AAQGkANHF5fAoIIAMT60k0gIUEEAKEF1cDo8CAsjw1EoiLUABAaQA0cXl8CgggAxPrSTSAhQQQAoQXVwOjwICyPDUSiItQIH/BznxCiPBRSU0AAAAAElFTkSuQmCC;" vertex="1" parent="1">
          <mxGeometry x="200" y="345" width="70" height="70" as="geometry" />
        </mxCell>
        <mxCell id="PLvDAdipm1odo7hSFxWH-10" value="" style="endArrow=classic;html=1;rounded=0;exitX=1;exitY=0.5;exitDx=0;exitDy=0;" edge="1" parent="1" source="PLvDAdipm1odo7hSFxWH-9">
          <mxGeometry width="50" height="50" relative="1" as="geometry">
            <mxPoint x="490" y="290" as="sourcePoint" />
            <mxPoint x="330" y="380" as="targetPoint" />
          </mxGeometry>
        </mxCell>
        <mxCell id="PLvDAdipm1odo7hSFxWH-13" value="â‘ " style="edgeLabel;html=1;align=center;verticalAlign=middle;resizable=0;points=[];labelBackgroundColor=none;" vertex="1" connectable="0" parent="PLvDAdipm1odo7hSFxWH-10">
          <mxGeometry x="-0.3" y="4" relative="1" as="geometry">
            <mxPoint x="2" y="-5" as="offset" />
          </mxGeometry>
        </mxCell>
        <mxCell id="PLvDAdipm1odo7hSFxWH-11" value="merge request" style="rounded=1;whiteSpace=wrap;html=1;fillColor=#ffe6cc;strokeColor=#d79b00;" vertex="1" parent="1">
          <mxGeometry x="540" y="350" width="120" height="60" as="geometry" />
        </mxCell>
        <mxCell id="PLvDAdipm1odo7hSFxWH-12" value="" style="endArrow=classic;html=1;rounded=0;exitX=1;exitY=0.5;exitDx=0;exitDy=0;" edge="1" parent="1">
          <mxGeometry width="50" height="50" relative="1" as="geometry">
            <mxPoint x="470" y="379.5" as="sourcePoint" />
            <mxPoint x="530" y="379.5" as="targetPoint" />
          </mxGeometry>
        </mxCell>
        <mxCell id="PLvDAdipm1odo7hSFxWH-14" value="â‘¡" style="edgeLabel;html=1;align=center;verticalAlign=middle;resizable=0;points=[];labelBackgroundColor=none;" vertex="1" connectable="0" parent="1">
          <mxGeometry x="500" y="369" as="geometry">
            <mxPoint x="-2" y="1" as="offset" />
          </mxGeometry>
        </mxCell>
        <mxCell id="PLvDAdipm1odo7hSFxWH-16" value="" style="endArrow=classic;html=1;rounded=0;" edge="1" parent="1">
          <mxGeometry width="50" height="50" relative="1" as="geometry">
            <mxPoint x="680" y="380" as="sourcePoint" />
            <mxPoint x="1020" y="380" as="targetPoint" />
          </mxGeometry>
        </mxCell>
      </root>
    </mxGraphModel>
  </diagram>
</mxfile>
